<svg width="42" height="40" viewBox="0 0 42 40" fill="none" xmlns="http://www.w3.org/2000/svg">
<g id="Frame">
<circle id="Ellipse" cx="20" cy="20" r="20" fill="white" fill-opacity="0.3"/>
<path id="Vector" d="M23.7 13.1551C25.2 12.6551 26.3 13.4551 26.9 14.2551C27.4 14.0551 28 13.8551 28.6 13.6551C28.6 14.4551 28.1 15.0551 27.8 15.2551C28.5 15.4551 29 14.8551 29 14.8551C28.9 15.7551 28.1 16.5551 27.6 16.7551C27.4 23.0551 24.8 27.1551 18.7 27.0551C18.2 27.0551 18.8 27.0551 18.3 27.0551C18 27.0551 14.6 26.6551 14 25.2551C16 25.4551 17.4 24.8551 18.1 24.1551C17.3 23.8551 15.7 23.7551 15.5 21.3551C15.8 21.5551 16 21.6551 16.6 21.5551C15.5 20.7551 14.3 20.0551 14.4 18.0551C14.7 18.3551 15.3 18.5551 15.6 18.4551C15 18.2551 13.8 15.3551 14.8 13.8551C16.4 15.5551 18.1 17.2551 21.1 17.3551C21.3 15.2551 22.1 13.8551 23.7 13.1551Z" fill="#444444"/>
</g>
</svg>
