<svg width="293" height="51" viewBox="0 0 293 51" fill="none" xmlns="http://www.w3.org/2000/svg">
<path d="M1.278 32.3889V19.6089H4.212V24.5589H5.22L8.784 19.6089H12.06L7.488 25.7829L12.456 32.3889H8.874L5.13 27.2409H4.212V32.3889H1.278ZM20.8077 19.6089H23.9937L28.3857 32.3889H25.3617L24.3717 29.5269H20.3937L19.4217 32.3889H16.3977L20.8077 19.6089ZM23.8857 27.4929L22.3917 22.5789L20.8617 27.4929H23.8857ZM41.8222 22.2009H37.9342V32.3889H34.9822V22.2009H31.0762V19.6089H41.8222V22.2009ZM48.9257 19.6089H52.1117L56.5037 32.3889H53.4797L52.4897 29.5269H48.5117L47.5397 32.3889H44.5157L48.9257 19.6089ZM52.0037 27.4929L50.5097 22.5789L48.9797 27.4929H52.0037ZM69.3183 32.3889V22.2009H66.1503L66.0783 24.1629C66.0183 25.8189 65.8743 27.1869 65.6463 28.2669C65.4303 29.3469 65.1063 30.1929 64.6743 30.8049C64.2423 31.4169 63.6903 31.8549 63.0183 32.1189C62.3583 32.3709 61.5663 32.4969 60.6423 32.4969V29.9409C61.0623 29.9409 61.4283 29.8569 61.7403 29.6889C62.0523 29.5089 62.3103 29.1849 62.5143 28.7169C62.7303 28.2489 62.8983 27.5829 63.0183 26.7189C63.1503 25.8429 63.2403 24.7029 63.2883 23.2989L63.4143 19.6089H72.2703V32.3889H69.3183ZM83.9197 32.4969C82.9597 32.4969 82.0897 32.3169 81.3097 31.9569C80.5417 31.5849 79.8757 31.0929 79.3117 30.4809C78.7597 29.8569 78.3337 29.1609 78.0337 28.3929C77.7337 27.6129 77.5837 26.8089 77.5837 25.9809C77.5837 25.1289 77.7397 24.3189 78.0517 23.5509C78.3757 22.7829 78.8197 22.0989 79.3837 21.4989C79.9597 20.8869 80.6377 20.4069 81.4177 20.0589C82.1977 19.7109 83.0497 19.5369 83.9737 19.5369C84.9217 19.5369 85.7797 19.7229 86.5477 20.0949C87.3277 20.4549 87.9937 20.9469 88.5457 21.5709C89.1097 22.1949 89.5417 22.8969 89.8417 23.6769C90.1417 24.4449 90.2917 25.2309 90.2917 26.0349C90.2917 26.8869 90.1357 27.6969 89.8237 28.4649C89.5117 29.2329 89.0677 29.9229 88.4917 30.5349C87.9157 31.1349 87.2377 31.6149 86.4577 31.9749C85.6897 32.3229 84.8437 32.4969 83.9197 32.4969ZM80.5897 26.0169C80.5897 26.5089 80.6617 26.9889 80.8057 27.4569C80.9497 27.9129 81.1597 28.3209 81.4357 28.6809C81.7237 29.0409 82.0777 29.3289 82.4977 29.5449C82.9177 29.7609 83.3977 29.8689 83.9377 29.8689C84.5017 29.8689 84.9937 29.7609 85.4137 29.5449C85.8337 29.3169 86.1817 29.0169 86.4577 28.6449C86.7337 28.2729 86.9377 27.8589 87.0697 27.4029C87.2137 26.9349 87.2857 26.4609 87.2857 25.9809C87.2857 25.4889 87.2137 25.0149 87.0697 24.5589C86.9257 24.1029 86.7097 23.6949 86.4217 23.3349C86.1337 22.9629 85.7797 22.6749 85.3597 22.4709C84.9397 22.2669 84.4657 22.1649 83.9377 22.1649C83.3737 22.1649 82.8817 22.2729 82.4617 22.4889C82.0537 22.7049 81.7057 22.9989 81.4177 23.3709C81.1417 23.7309 80.9317 24.1449 80.7877 24.6129C80.6557 25.0689 80.5897 25.5369 80.5897 26.0169ZM95.6514 32.3889V19.6089H103.715V22.2009H98.6034V32.3889H95.6514ZM126 22.2009H122.112V32.3889H119.16V22.2009H115.254V19.6089H126V22.2009ZM136.394 32.4969C135.434 32.4969 134.564 32.3169 133.784 31.9569C133.016 31.5849 132.35 31.0929 131.786 30.4809C131.234 29.8569 130.808 29.1609 130.508 28.3929C130.208 27.6129 130.058 26.8089 130.058 25.9809C130.058 25.1289 130.214 24.3189 130.526 23.5509C130.85 22.7829 131.294 22.0989 131.858 21.4989C132.434 20.8869 133.112 20.4069 133.892 20.0589C134.672 19.7109 135.524 19.5369 136.448 19.5369C137.396 19.5369 138.254 19.7229 139.022 20.0949C139.802 20.4549 140.468 20.9469 141.02 21.5709C141.584 22.1949 142.016 22.8969 142.316 23.6769C142.616 24.4449 142.766 25.2309 142.766 26.0349C142.766 26.8869 142.61 27.6969 142.298 28.4649C141.986 29.2329 141.542 29.9229 140.966 30.5349C140.39 31.1349 139.712 31.6149 138.932 31.9749C138.164 32.3229 137.318 32.4969 136.394 32.4969ZM133.064 26.0169C133.064 26.5089 133.136 26.9889 133.28 27.4569C133.424 27.9129 133.634 28.3209 133.91 28.6809C134.198 29.0409 134.552 29.3289 134.972 29.5449C135.392 29.7609 135.872 29.8689 136.412 29.8689C136.976 29.8689 137.468 29.7609 137.888 29.5449C138.308 29.3169 138.656 29.0169 138.932 28.6449C139.208 28.2729 139.412 27.8589 139.544 27.4029C139.688 26.9349 139.76 26.4609 139.76 25.9809C139.76 25.4889 139.688 25.0149 139.544 24.5589C139.4 24.1029 139.184 23.6949 138.896 23.3349C138.608 22.9629 138.254 22.6749 137.834 22.4709C137.414 22.2669 136.94 22.1649 136.412 22.1649C135.848 22.1649 135.356 22.2729 134.936 22.4889C134.528 22.7049 134.18 22.9989 133.892 23.3709C133.616 23.7309 133.406 24.1449 133.262 24.6129C133.13 25.0689 133.064 25.5369 133.064 26.0169ZM158.638 29.1129C158.638 29.8449 158.44 30.4569 158.044 30.9489C157.66 31.4289 157.138 31.7889 156.478 32.0289C155.818 32.2689 155.092 32.3889 154.3 32.3889H148.072V19.6089H155.182C155.782 19.6089 156.298 19.7709 156.73 20.0949C157.174 20.4069 157.51 20.8149 157.738 21.3189C157.978 21.8229 158.098 22.3449 158.098 22.8849C158.098 23.4849 157.942 24.0609 157.63 24.6129C157.318 25.1529 156.862 25.5609 156.262 25.8369C156.994 26.0529 157.57 26.4369 157.99 26.9889C158.422 27.5409 158.638 28.2489 158.638 29.1129ZM155.632 28.5189C155.632 28.2429 155.578 28.0029 155.47 27.7989C155.362 27.5829 155.218 27.4149 155.038 27.2949C154.87 27.1629 154.666 27.0969 154.426 27.0969H151.024V29.8869H154.3C154.552 29.8869 154.774 29.8269 154.966 29.7069C155.17 29.5869 155.332 29.4249 155.452 29.2209C155.572 29.0169 155.632 28.7829 155.632 28.5189ZM151.024 22.1289V24.7749H153.922C154.138 24.7749 154.336 24.7269 154.516 24.6309C154.708 24.5349 154.864 24.3909 154.984 24.1989C155.104 23.9949 155.164 23.7429 155.164 23.4429C155.164 23.1549 155.11 22.9149 155.002 22.7229C154.906 22.5309 154.774 22.3869 154.606 22.2909C154.438 22.1829 154.246 22.1289 154.03 22.1289H151.024ZM166.917 19.6089H170.103L174.495 32.3889H171.471L170.481 29.5269H166.503L165.531 32.3889H162.507L166.917 19.6089ZM169.995 27.4929L168.501 22.5789L166.971 27.4929H169.995ZM179.354 32.3889V19.6089H184.808C185.42 19.6089 185.978 19.7349 186.482 19.9869C186.998 20.2269 187.442 20.5569 187.814 20.9769C188.186 21.3849 188.474 21.8469 188.678 22.3629C188.882 22.8789 188.984 23.4069 188.984 23.9469C188.984 24.6789 188.81 25.3749 188.462 26.0349C188.126 26.6949 187.652 27.2349 187.04 27.6549C186.44 28.0629 185.726 28.2669 184.898 28.2669H182.306V32.3889H179.354ZM182.306 25.6929H184.718C184.946 25.6929 185.156 25.6269 185.348 25.4949C185.54 25.3629 185.696 25.1649 185.816 24.9009C185.936 24.6369 185.996 24.3129 185.996 23.9289C185.996 23.5329 185.924 23.2089 185.78 22.9569C185.648 22.6929 185.474 22.5009 185.258 22.3809C185.054 22.2609 184.838 22.2009 184.61 22.2009H182.306V25.6929ZM199.767 32.4969C198.807 32.4969 197.937 32.3169 197.157 31.9569C196.389 31.5849 195.723 31.0929 195.159 30.4809C194.607 29.8569 194.181 29.1609 193.881 28.3929C193.581 27.6129 193.431 26.8089 193.431 25.9809C193.431 25.1289 193.587 24.3189 193.899 23.5509C194.223 22.7829 194.667 22.0989 195.231 21.4989C195.807 20.8869 196.485 20.4069 197.265 20.0589C198.045 19.7109 198.897 19.5369 199.821 19.5369C200.769 19.5369 201.627 19.7229 202.395 20.0949C203.175 20.4549 203.841 20.9469 204.393 21.5709C204.957 22.1949 205.389 22.8969 205.689 23.6769C205.989 24.4449 206.139 25.2309 206.139 26.0349C206.139 26.8869 205.983 27.6969 205.671 28.4649C205.359 29.2329 204.915 29.9229 204.339 30.5349C203.763 31.1349 203.085 31.6149 202.305 31.9749C201.537 32.3229 200.691 32.4969 199.767 32.4969ZM196.437 26.0169C196.437 26.5089 196.509 26.9889 196.653 27.4569C196.797 27.9129 197.007 28.3209 197.283 28.6809C197.571 29.0409 197.925 29.3289 198.345 29.5449C198.765 29.7609 199.245 29.8689 199.785 29.8689C200.349 29.8689 200.841 29.7609 201.261 29.5449C201.681 29.3169 202.029 29.0169 202.305 28.6449C202.581 28.2729 202.785 27.8589 202.917 27.4029C203.061 26.9349 203.133 26.4609 203.133 25.9809C203.133 25.4889 203.061 25.0149 202.917 24.5589C202.773 24.1029 202.557 23.6949 202.269 23.3349C201.981 22.9629 201.627 22.6749 201.207 22.4709C200.787 22.2669 200.313 22.1649 199.785 22.1649C199.221 22.1649 198.729 22.2729 198.309 22.4889C197.901 22.7049 197.553 22.9989 197.265 23.3709C196.989 23.7309 196.779 24.1449 196.635 24.6129C196.503 25.0689 196.437 25.5369 196.437 26.0169ZM222.01 29.1129C222.01 29.8449 221.812 30.4569 221.416 30.9489C221.032 31.4289 220.51 31.7889 219.85 32.0289C219.19 32.2689 218.464 32.3889 217.672 32.3889H211.444V19.6089H218.554C219.154 19.6089 219.67 19.7709 220.102 20.0949C220.546 20.4069 220.882 20.8149 221.11 21.3189C221.35 21.8229 221.47 22.3449 221.47 22.8849C221.47 23.4849 221.314 24.0609 221.002 24.6129C220.69 25.1529 220.234 25.5609 219.634 25.8369C220.366 26.0529 220.942 26.4369 221.362 26.9889C221.794 27.5409 222.01 28.2489 222.01 29.1129ZM219.004 28.5189C219.004 28.2429 218.95 28.0029 218.842 27.7989C218.734 27.5829 218.59 27.4149 218.41 27.2949C218.242 27.1629 218.038 27.0969 217.798 27.0969H214.396V29.8869H217.672C217.924 29.8869 218.146 29.8269 218.338 29.7069C218.542 29.5869 218.704 29.4249 218.824 29.2209C218.944 29.0169 219.004 28.7829 219.004 28.5189ZM214.396 22.1289V24.7749H217.294C217.51 24.7749 217.708 24.7269 217.888 24.6309C218.08 24.5349 218.236 24.3909 218.356 24.1989C218.476 23.9949 218.536 23.7429 218.536 23.4429C218.536 23.1549 218.482 22.9149 218.374 22.7229C218.278 22.5309 218.146 22.3869 217.978 22.2909C217.81 22.1829 217.618 22.1289 217.402 22.1289H214.396Z" fill="black"/>
<circle opacity="0.3" cx="268" cy="25.3889" r="24" stroke="black" stroke-width="2"/>
<g opacity="0.3" clip-path="url(#clip0_45611_919)">
<path d="M276 24.3889H269V17.3889H267V24.3889H260V26.3889H267V33.3889H269V26.3889H276V24.3889Z" fill="black"/>
</g>
<defs>
<clipPath id="clip0_45611_919">
<rect width="16" height="16" fill="white" transform="translate(260 17.3889)"/>
</clipPath>
</defs>
</svg>
