<svg width="146" height="26" viewBox="0 0 146 26" fill="none" xmlns="http://www.w3.org/2000/svg">
<path d="M1.71 19C1.578 19 1.47 18.958 1.386 18.874C1.302 18.79 1.26 18.682 1.26 18.55V6.85C1.26 6.718 1.302 6.61 1.386 6.526C1.47 6.442 1.578 6.4 1.71 6.4H4.032C4.164 6.4 4.272 6.442 4.356 6.526C4.44 6.61 4.482 6.718 4.482 6.85V11.188H5.58L8.244 6.742C8.304 6.646 8.388 6.568 8.496 6.508C8.604 6.436 8.742 6.4 8.91 6.4H11.502C11.622 6.4 11.718 6.442 11.79 6.526C11.862 6.598 11.898 6.682 11.898 6.778C11.898 6.85 11.874 6.922 11.826 6.994L8.478 12.466L12.15 18.388C12.186 18.436 12.204 18.502 12.204 18.586C12.204 18.706 12.162 18.808 12.078 18.892C12.006 18.964 11.91 19 11.79 19H9.126C8.934 19 8.79 18.958 8.694 18.874C8.61 18.79 8.544 18.718 8.496 18.658L5.706 14.068H4.482V18.55C4.482 18.682 4.44 18.79 4.356 18.874C4.272 18.958 4.164 19 4.032 19H1.71ZM17.7511 19.18C16.7431 19.18 15.8911 19.018 15.1951 18.694C14.5111 18.37 13.9831 17.908 13.6111 17.308C13.2511 16.696 13.0471 15.97 12.9991 15.13C12.9871 14.89 12.9811 14.62 12.9811 14.32C12.9811 14.008 12.9871 13.738 12.9991 13.51C13.0471 12.658 13.2631 11.932 13.6471 11.332C14.0311 10.732 14.5651 10.27 15.2491 9.946C15.9451 9.622 16.7791 9.46 17.7511 9.46C18.7351 9.46 19.5691 9.622 20.2531 9.946C20.9491 10.27 21.4891 10.732 21.8731 11.332C22.2571 11.932 22.4731 12.658 22.5211 13.51C22.5331 13.738 22.5391 14.008 22.5391 14.32C22.5391 14.62 22.5331 14.89 22.5211 15.13C22.4731 15.97 22.2631 16.696 21.8911 17.308C21.5311 17.908 21.0031 18.37 20.3071 18.694C19.6231 19.018 18.7711 19.18 17.7511 19.18ZM17.7511 16.984C18.2911 16.984 18.6811 16.822 18.9211 16.498C19.1731 16.174 19.3171 15.688 19.3531 15.04C19.3651 14.86 19.3711 14.62 19.3711 14.32C19.3711 14.02 19.3651 13.78 19.3531 13.6C19.3171 12.964 19.1731 12.484 18.9211 12.16C18.6811 11.824 18.2911 11.656 17.7511 11.656C17.2231 11.656 16.8331 11.824 16.5811 12.16C16.3291 12.484 16.1911 12.964 16.1671 13.6C16.1551 13.78 16.1491 14.02 16.1491 14.32C16.1491 14.62 16.1551 14.86 16.1671 15.04C16.1911 15.688 16.3291 16.174 16.5811 16.498C16.8331 16.822 17.2231 16.984 17.7511 16.984ZM23.7874 19C23.6674 19 23.5594 18.958 23.4634 18.874C23.3794 18.778 23.3374 18.67 23.3374 18.55V16.966C23.3374 16.702 23.4814 16.552 23.7694 16.516C24.1174 16.48 24.3814 16.318 24.5614 16.03C24.7414 15.742 24.8674 15.316 24.9394 14.752C25.0114 14.188 25.0474 13.48 25.0474 12.628V10.09C25.0474 9.958 25.0894 9.85 25.1734 9.766C25.2694 9.682 25.3774 9.64 25.4974 9.64H32.5534C32.6854 9.64 32.7934 9.682 32.8774 9.766C32.9614 9.85 33.0034 9.958 33.0034 10.09V18.55C33.0034 18.682 32.9614 18.79 32.8774 18.874C32.7934 18.958 32.6854 19 32.5534 19H30.4294C30.3094 19 30.2014 18.958 30.1054 18.874C30.0214 18.79 29.9794 18.682 29.9794 18.55V11.998H27.9274V12.952C27.9274 14.104 27.8674 15.07 27.7474 15.85C27.6274 16.63 27.4114 17.248 27.0994 17.704C26.7874 18.16 26.3614 18.49 25.8214 18.694C25.2814 18.898 24.6034 19 23.7874 19ZM35.2714 19C35.1514 19 35.0494 18.958 34.9654 18.874C34.8814 18.79 34.8394 18.688 34.8394 18.568V10.09C34.8394 9.958 34.8814 9.85 34.9654 9.766C35.0494 9.682 35.1574 9.64 35.2894 9.64H37.4134C37.5334 9.64 37.6354 9.682 37.7194 9.766C37.8154 9.85 37.8634 9.958 37.8634 10.09V16.66L37.0534 16.264L41.4994 9.928C41.5594 9.844 41.6314 9.778 41.7154 9.73C41.7994 9.67 41.8954 9.64 42.0034 9.64H43.9294C44.0494 9.64 44.1514 9.682 44.2354 9.766C44.3194 9.85 44.3614 9.952 44.3614 10.072V18.55C44.3614 18.682 44.3194 18.79 44.2354 18.874C44.1514 18.958 44.0434 19 43.9114 19H41.7874C41.6554 19 41.5474 18.958 41.4634 18.874C41.3794 18.79 41.3374 18.682 41.3374 18.55V12.178L42.1654 12.34L37.6834 18.712C37.6354 18.796 37.5694 18.868 37.4854 18.928C37.4014 18.976 37.2994 19 37.1794 19H35.2714ZM51.8979 19C51.7659 19 51.6579 18.958 51.5739 18.874C51.4899 18.79 51.4479 18.682 51.4479 18.55V15.814C51.1719 16.03 50.8239 16.198 50.4039 16.318C49.9839 16.426 49.5099 16.48 48.9819 16.48C47.8659 16.48 47.0019 16.192 46.3899 15.616C45.7899 15.04 45.4899 14.116 45.4899 12.844V10.09C45.4899 9.958 45.5319 9.85 45.6159 9.766C45.6999 9.682 45.8079 9.64 45.9399 9.64H48.1359C48.2679 9.64 48.3759 9.682 48.4599 9.766C48.5439 9.85 48.5859 9.958 48.5859 10.09V12.7C48.5859 13.12 48.6879 13.42 48.8919 13.6C49.0959 13.768 49.4379 13.852 49.9179 13.852C50.3619 13.852 50.7279 13.786 51.0159 13.654C51.3039 13.51 51.4479 13.294 51.4479 13.006V10.09C51.4479 9.958 51.4899 9.85 51.5739 9.766C51.6579 9.682 51.7659 9.64 51.8979 9.64H54.2019C54.3339 9.64 54.4419 9.682 54.5259 9.766C54.6099 9.85 54.6519 9.958 54.6519 10.09V18.55C54.6519 18.682 54.6099 18.79 54.5259 18.874C54.4419 18.958 54.3339 19 54.2019 19H51.8979ZM60.8164 19.18C59.4004 19.18 58.2724 18.796 57.4324 18.028C56.5924 17.26 56.1544 16.12 56.1184 14.608C56.1184 14.524 56.1184 14.416 56.1184 14.284C56.1184 14.152 56.1184 14.05 56.1184 13.978C56.1544 13.03 56.3644 12.22 56.7484 11.548C57.1444 10.864 57.6844 10.348 58.3684 10C59.0644 9.64 59.8744 9.46 60.7984 9.46C61.8544 9.46 62.7244 9.67 63.4084 10.09C64.1044 10.51 64.6264 11.08 64.9744 11.8C65.3224 12.52 65.4964 13.342 65.4964 14.266V14.698C65.4964 14.83 65.4484 14.938 65.3524 15.022C65.2684 15.106 65.1664 15.148 65.0464 15.148H59.2864C59.2864 15.16 59.2864 15.178 59.2864 15.202C59.2864 15.226 59.2864 15.25 59.2864 15.274C59.2984 15.622 59.3584 15.94 59.4664 16.228C59.5744 16.516 59.7424 16.744 59.9704 16.912C60.1984 17.08 60.4744 17.164 60.7984 17.164C61.0384 17.164 61.2364 17.128 61.3924 17.056C61.5604 16.972 61.6984 16.882 61.8064 16.786C61.9144 16.678 61.9984 16.588 62.0584 16.516C62.1664 16.396 62.2504 16.324 62.3104 16.3C62.3824 16.264 62.4904 16.246 62.6344 16.246H64.8664C64.9864 16.246 65.0824 16.282 65.1544 16.354C65.2384 16.414 65.2744 16.504 65.2624 16.624C65.2504 16.828 65.1484 17.074 64.9564 17.362C64.7644 17.65 64.4824 17.938 64.1104 18.226C63.7504 18.502 63.2944 18.73 62.7424 18.91C62.1904 19.09 61.5484 19.18 60.8164 19.18ZM59.2864 13.366H62.3284V13.33C62.3284 12.946 62.2684 12.61 62.1484 12.322C62.0404 12.034 61.8664 11.812 61.6264 11.656C61.3984 11.5 61.1224 11.422 60.7984 11.422C60.4744 11.422 60.1984 11.5 59.9704 11.656C59.7544 11.812 59.5864 12.034 59.4664 12.322C59.3464 12.61 59.2864 12.946 59.2864 13.33V13.366ZM71.1259 19.18C70.2379 19.18 69.4519 19.018 68.7679 18.694C68.0839 18.37 67.5379 17.902 67.1299 17.29C66.7339 16.666 66.5179 15.922 66.4819 15.058C66.4699 14.866 66.4639 14.626 66.4639 14.338C66.4639 14.038 66.4699 13.792 66.4819 13.6C66.5179 12.724 66.7339 11.98 67.1299 11.368C67.5259 10.744 68.0659 10.27 68.7499 9.946C69.4459 9.622 70.2379 9.46 71.1259 9.46C71.9539 9.46 72.6619 9.58 73.2499 9.82C73.8379 10.048 74.3179 10.336 74.6899 10.684C75.0619 11.032 75.3379 11.392 75.5179 11.764C75.7099 12.124 75.8119 12.442 75.8239 12.718C75.8359 12.838 75.7939 12.946 75.6979 13.042C75.6019 13.126 75.4939 13.168 75.3739 13.168H73.0879C72.9559 13.168 72.8539 13.138 72.7819 13.078C72.7099 13.018 72.6439 12.928 72.5839 12.808C72.4399 12.436 72.2539 12.172 72.0259 12.016C71.8099 11.86 71.5279 11.782 71.1799 11.782C70.6999 11.782 70.3279 11.938 70.0639 12.25C69.8119 12.562 69.6739 13.042 69.6499 13.69C69.6379 14.17 69.6379 14.596 69.6499 14.968C69.6739 15.628 69.8119 16.108 70.0639 16.408C70.3279 16.708 70.6999 16.858 71.1799 16.858C71.5519 16.858 71.8459 16.78 72.0619 16.624C72.2779 16.468 72.4519 16.204 72.5839 15.832C72.6439 15.712 72.7099 15.622 72.7819 15.562C72.8539 15.502 72.9559 15.472 73.0879 15.472H75.3739C75.4939 15.472 75.6019 15.52 75.6979 15.616C75.7939 15.7 75.8359 15.802 75.8239 15.922C75.8119 16.126 75.7519 16.366 75.6439 16.642C75.5359 16.906 75.3679 17.188 75.1399 17.488C74.9119 17.788 74.6119 18.07 74.2399 18.334C73.8799 18.586 73.4419 18.79 72.9259 18.946C72.4099 19.102 71.8099 19.18 71.1259 19.18ZM79.9071 19C79.7871 19 79.6791 18.958 79.5831 18.874C79.4991 18.79 79.4571 18.682 79.4571 18.55V11.998H76.7211C76.6011 11.998 76.4931 11.956 76.3971 11.872C76.3131 11.788 76.2711 11.68 76.2711 11.548V10.09C76.2711 9.958 76.3131 9.85 76.3971 9.766C76.4931 9.682 76.6011 9.64 76.7211 9.64H85.1811C85.3011 9.64 85.4031 9.682 85.4871 9.766C85.5831 9.85 85.6311 9.958 85.6311 10.09V11.548C85.6311 11.68 85.5831 11.788 85.4871 11.872C85.4031 11.956 85.3011 11.998 85.1811 11.998H82.4451V18.55C82.4451 18.682 82.4031 18.79 82.3191 18.874C82.2351 18.958 82.1271 19 81.9951 19H79.9071ZM87.0324 19C86.9004 19 86.7924 18.958 86.7084 18.874C86.6244 18.79 86.5824 18.682 86.5824 18.55V10.09C86.5824 9.958 86.6244 9.85 86.7084 9.766C86.7924 9.682 86.9004 9.64 87.0324 9.64H91.2444C92.6724 9.64 93.7104 9.88 94.3584 10.36C95.0184 10.84 95.3484 11.488 95.3484 12.304C95.3484 12.76 95.2584 13.132 95.0784 13.42C94.8984 13.708 94.6584 13.948 94.3584 14.14C94.7544 14.344 95.0664 14.626 95.2944 14.986C95.5224 15.346 95.6364 15.76 95.6364 16.228C95.6364 17.092 95.3004 17.77 94.6284 18.262C93.9564 18.754 92.9124 19 91.4964 19H87.0324ZM89.4984 17.074H91.3344C91.7064 17.074 92.0064 17.008 92.2344 16.876C92.4624 16.732 92.5764 16.504 92.5764 16.192C92.5764 15.88 92.4684 15.658 92.2524 15.526C92.0484 15.382 91.7424 15.31 91.3344 15.31H89.4984V17.074ZM89.4984 13.294H91.2984C91.6704 13.294 91.9644 13.222 92.1804 13.078C92.4084 12.922 92.5224 12.694 92.5224 12.394C92.5224 12.082 92.4084 11.866 92.1804 11.746C91.9644 11.626 91.6704 11.566 91.2984 11.566H89.4984V13.294ZM101.566 19.18C100.558 19.18 99.7064 19.018 99.0104 18.694C98.3264 18.37 97.7984 17.908 97.4264 17.308C97.0664 16.696 96.8624 15.97 96.8144 15.13C96.8024 14.89 96.7964 14.62 96.7964 14.32C96.7964 14.008 96.8024 13.738 96.8144 13.51C96.8624 12.658 97.0784 11.932 97.4624 11.332C97.8464 10.732 98.3804 10.27 99.0644 9.946C99.7604 9.622 100.594 9.46 101.566 9.46C102.55 9.46 103.384 9.622 104.068 9.946C104.764 10.27 105.304 10.732 105.688 11.332C106.072 11.932 106.288 12.658 106.336 13.51C106.348 13.738 106.354 14.008 106.354 14.32C106.354 14.62 106.348 14.89 106.336 15.13C106.288 15.97 106.078 16.696 105.706 17.308C105.346 17.908 104.818 18.37 104.122 18.694C103.438 19.018 102.586 19.18 101.566 19.18ZM101.566 16.984C102.106 16.984 102.496 16.822 102.736 16.498C102.988 16.174 103.132 15.688 103.168 15.04C103.18 14.86 103.186 14.62 103.186 14.32C103.186 14.02 103.18 13.78 103.168 13.6C103.132 12.964 102.988 12.484 102.736 12.16C102.496 11.824 102.106 11.656 101.566 11.656C101.038 11.656 100.648 11.824 100.396 12.16C100.144 12.484 100.006 12.964 99.9824 13.6C99.9704 13.78 99.9644 14.02 99.9644 14.32C99.9644 14.62 99.9704 14.86 99.9824 15.04C100.006 15.688 100.144 16.174 100.396 16.498C100.648 16.822 101.038 16.984 101.566 16.984ZM108.179 12.7C108.059 12.7 107.951 12.658 107.855 12.574C107.771 12.49 107.729 12.382 107.729 12.25V10.072C107.729 9.952 107.771 9.85 107.855 9.766C107.951 9.67 108.059 9.622 108.179 9.622H110.465C110.597 9.622 110.705 9.67 110.789 9.766C110.873 9.85 110.915 9.952 110.915 10.072V12.25C110.915 12.382 110.873 12.49 110.789 12.574C110.705 12.658 110.597 12.7 110.465 12.7H108.179ZM108.179 19C108.059 19 107.951 18.958 107.855 18.874C107.771 18.79 107.729 18.682 107.729 18.55V16.372C107.729 16.252 107.771 16.15 107.855 16.066C107.951 15.97 108.059 15.922 108.179 15.922H110.465C110.597 15.922 110.705 15.97 110.789 16.066C110.873 16.15 110.915 16.252 110.915 16.372V18.55C110.915 18.682 110.873 18.79 110.789 18.874C110.705 18.958 110.597 19 110.465 19H108.179Z" fill="black"/>
<circle cx="133" cy="13" r="13" fill="#FFE17F"/>
<path d="M134 7H132V9H134V7Z" fill="black"/>
<path d="M134 11H132V19H134V11Z" fill="black"/>
</svg>
